# xmcd
#
# Track frame offsets:
#	150
#	10987
#	23760
#	37052
#	47157
#	59107
#	68347
#	82600
#	93120
#	103890
#	113935
#	124827
#	138950
#	152640
#	165345
#	181145
#
# Disc length: 2562 seconds
#
# Revision: 1
# Processed by: cddbd v1.5.2PL0 Copyright (c) Steve Scherf et al.
# Submitted via: audiograbber 1.83.01
#
DISCID=c50a0010
DTITLE=Charlie Pride - The Ultimate Selection
DYEAR=2001
DGENRE=Gospel
TTITLE0=Mississippi Cotton Picking Delta Town
TTITLE1=She's Too Good To Be True
TTITLE2=I Ain't All Bad
TTITLE3=Is Anybody Going To San Antone
TTITLE4=It's Gonna Take A Little Bit Longer
TTITLE5=Kiss An Angel Good Morning
TTITLE6=Amazing Love
TTITLE7=A Brand New Bed Of Roses
TTITLE8=The Easy Parts Over
TTITLE9=Then Who Am I
TTITLE10=I Know One
TTITLE11=I Can't Believe That You've Stopped Loving Me
TTITLE12=You Win Again
TTITLE13=You Almost Slipped My Mind
TTITLE14=Me And Bobby McGee
TTITLE15=Missin'  You
EXTD=
EXTT0=
EXTT1=
EXTT2=
EXTT3=
EXTT4=
EXTT5=
EXTT6=
EXTT7=
EXTT8=
EXTT9=
EXTT10=
EXTT11=
EXTT12=
EXTT13=
EXTT14=
EXTT15=
PLAYORDER=
